<?xml version="1.0" encoding="utf-8"?>
<!-- Generator: Adobe Illustrator 21.0.0, SVG Export Plug-In . SVG Version: 6.00 Build 0)  -->
<svg version="1.1" id="Layer_1" xmlns="http://www.w3.org/2000/svg" xmlns:xlink="http://www.w3.org/1999/xlink" x="0px" y="0px"
	 viewBox="0 0 169 30.7" style="enable-background:new 0 0 169 30.7;" xml:space="preserve">
<style type="text/css">
	.st0{fill-opacity:0;}
	.st1{enable-background:new    ;}
	.st2{stroke:#000000;stroke-width:0.5;stroke-miterlimit:10;}
</style>
<g id="Layer_1_1_">
	<g id="Layer_463">
		<g id="Layer_699">
			<rect x="-49.7" y="-67.3" class="st0" width="1357.1" height="129.5"/>
		</g>
	</g>
</g>
<g id="header">
	<g>
		<g class="st1">
			<path class="st2" d="M13.1,8.3c0.1,0,0.1,0,0.1,0.1V9c0,0.1,0,0.1-0.1,0.1H9.7v11.2c0,0.1,0,0.1-0.1,0.1H9c-0.1,0-0.1,0-0.1-0.1
				V9.1H5.4L5.3,9V8.4c0-0.1,0-0.1,0.1-0.1C5.4,8.3,13.1,8.3,13.1,8.3z"/>
			<path class="st2" d="M14.6,20.4c-0.1,0-0.1,0-0.1-0.1V8.4c0-0.1,0-0.1,0.1-0.1h0.6c0.1,0,0.1,0,0.1,0.1v11.9c0,0.1,0,0.1-0.1,0.1
				H14.6z M23,14.7h-8.5v-0.8H23V14.7z M22.3,20.4c-0.1,0-0.1,0-0.1-0.1V8.4c0-0.1,0-0.1,0.1-0.1h0.6c0.1,0,0.1,0,0.1,0.1v11.9
				c0,0.1,0,0.1-0.1,0.1H22.3z"/>
			<path class="st2" d="M27,9.1V14h4.6c0.1,0,0.1,0,0.1,0.1v0.6c0,0.1,0,0.1-0.1,0.1H27v4.9h6.9c0.1,0,0.1,0,0.1,0.1v0.6
				c0,0.1,0,0.1-0.1,0.1h-7.6c-0.1,0-0.1,0-0.1-0.1v-12c0-0.1,0-0.1,0.1-0.1h7.6c0.1,0,0.1,0,0.1,0.1V9c0,0.1,0,0.1-0.1,0.1H27z"/>
			<path class="st2" d="M46.3,8.3c0.1,0,0.1,0,0.1,0.1V9c0,0.1,0,0.1-0.1,0.1h-3.4v11.2c0,0.1,0,0.1-0.1,0.1h-0.6
				c-0.1,0-0.1,0-0.1-0.1V9.1h-3.4c-0.1,0-0.1,0-0.1-0.1V8.4c0-0.1,0-0.1,0.1-0.1C38.7,8.3,46.3,8.3,46.3,8.3z"/>
			<path class="st2" d="M48.7,19.1c-0.7-0.8-1.1-1.7-1.1-2.8V8.4c0-0.1,0-0.1,0.1-0.1h0.6c0.1,0,0.1,0,0.1,0.1v7.9
				c0,0.9,0.3,1.6,0.9,2.3c0.6,0.6,1.3,1,2.2,1s1.7-0.3,2.3-0.9s1-1.4,1-2.3v-8c0-0.1,0-0.1,0.1-0.1h0.6c0.1,0,0.1,0,0.1,0.1v8
				c0,1.1-0.4,2.1-1.2,2.9s-1.8,1.2-2.9,1.1C50.4,20.4,49.5,19.9,48.7,19.1z"/>
			<path class="st2" d="M58.6,14.8V8.4c0-0.1,0-0.1,0.1-0.1H63c0.9,0,1.6,0.3,2.3,0.9c0.6,0.6,1,1.4,1,2.3c0,0.9-0.3,1.7-1,2.3
				s-1.4,1-2.4,1C62.9,14.8,58.6,14.8,58.6,14.8z M58.7,20.4c-0.1,0-0.1,0-0.1-0.1V13h0.8v7.2c0,0.1,0,0.1-0.1,0.1L58.7,20.4
				L58.7,20.4z M59.4,14H63c0.7,0,1.3-0.2,1.7-0.7c0.5-0.5,0.7-1.1,0.7-1.7c0-0.7-0.2-1.3-0.7-1.7c-0.5-0.5-1.1-0.7-1.7-0.7h-3.7V14
				H59.4z M65.3,20.4c0,0-0.1,0-0.1-0.1l-3.1-5.6l0.7-0.4l3.2,5.9v0.1l-0.1,0.1H65.3z"/>
			<path class="st2" d="M77.4,20.3c0,0.1,0,0.1-0.1,0.1h-0.1c0,0-0.1,0-0.1-0.1l-7.4-9.9v9.9c0,0.1,0,0.1-0.1,0.1H69
				c-0.1,0-0.1,0-0.1-0.1V8.4c0-0.1,0-0.1,0.1-0.1l0,0c0,0,0.1,0,0.1,0.1l7.5,10v-10c0-0.1,0-0.1,0.1-0.1h0.6c0.1,0,0.1,0,0.1,0.1
				C77.4,8.4,77.4,20.3,77.4,20.3z"/>
			<path class="st2" d="M80.7,20.4c-0.1,0-0.1,0-0.1-0.1V8.4c0-0.1,0-0.1,0.1-0.1h0.6c0.1,0,0.1,0,0.1,0.1v11.9c0,0.1,0,0.1-0.1,0.1
				H80.7z"/>
			<path class="st2" d="M93.1,20.3c0,0.1,0,0.1-0.1,0.1h-0.1c0,0-0.1,0-0.1-0.1l-7.4-9.9v9.9c0,0.1,0,0.1-0.1,0.1h-0.6
				c-0.1,0-0.1,0-0.1-0.1V8.4c0-0.1,0-0.1,0.1-0.1l0,0c0,0,0.1,0,0.1,0.1l7.5,10v-10c0-0.1,0-0.1,0.1-0.1H93c0.1,0,0.1,0,0.1,0.1
				V20.3z"/>
			<path class="st2" d="M99.4,20c-0.8-0.3-1.5-0.8-2.1-1.4s-1-1.3-1.3-2.1c-0.3-0.8-0.4-1.7-0.3-2.6c0.1-1.5,0.7-2.7,1.8-3.8
				c1.1-1,2.4-1.6,3.8-1.7c0.9-0.1,1.7,0.1,2.5,0.4c0.8,0.3,1.5,0.8,2.1,1.4c0.1,0.1,0.1,0.1,0,0.2l-0.4,0.4c-0.1,0.1-0.1,0.1-0.2,0
				c-1-1-2.2-1.5-3.7-1.5c-1.4,0-2.6,0.5-3.6,1.4s-1.6,2.1-1.7,3.5c-0.1,0.8,0,1.5,0.3,2.2c0.2,0.7,0.6,1.3,1.1,1.8s1.1,0.9,1.7,1.2
				c0.7,0.3,1.4,0.5,2.1,0.5c1.4,0,2.6-0.5,3.6-1.5v-2.8h-2.5c-0.1,0-0.1,0-0.1-0.1v-0.6c0-0.1,0-0.1,0.1-0.1h3.2
				c0.1,0,0.1,0,0.1,0.1v3.8v0.1l0,0c-0.5,0.6-1.2,1-1.9,1.3c-0.7,0.3-1.4,0.5-2.2,0.5C101.1,20.4,100.2,20.3,99.4,20z"/>
			<path class="st2" d="M117.2,8.3c0.9,0,1.7,0.3,2.3,0.9c0.6,0.6,1,1.4,1,2.3c0,0.9-0.3,1.7-1,2.3s-1.4,1-2.4,1h-3.6v5.5
				c0,0.1,0,0.1-0.1,0.1h-0.6c-0.1,0-0.1,0-0.1-0.1V8.4c0-0.1,0-0.1,0.1-0.1C112.8,8.3,117.2,8.3,117.2,8.3z M117.2,14
				c0.7,0,1.3-0.2,1.7-0.7c0.5-0.5,0.7-1.1,0.7-1.7c0-0.7-0.2-1.3-0.7-1.7c-0.5-0.5-1.1-0.7-1.7-0.7h-3.7V14H117.2z"/>
			<path class="st2" d="M139.8,20.4c-0.1,0-0.1,0-0.1-0.1V8.4c0-0.1,0-0.1,0.1-0.1h0.6c0.1,0,0.1,0,0.1,0.1v11.9
				c0,0.1,0,0.1-0.1,0.1H139.8z"/>
			<path class="st2" d="M152.1,20.3c0,0.1,0,0.1-0.1,0.1l0,0c0,0-0.1,0-0.1-0.1l-7.4-9.9v9.9c0,0.1,0,0.1-0.1,0.1h-0.6
				c-0.1,0-0.1,0-0.1-0.1V8.4c0-0.1,0-0.1,0.1-0.1l0,0c0,0,0.1,0,0.1,0.1l7.5,10v-10c0-0.1,0-0.1,0.1-0.1h0.6c0.1,0,0.1,0,0.1,0.1
				v11.9H152.1z"/>
			<path class="st2" d="M161.3,8.3c0.1,0,0.1,0,0.1,0.1V9c0,0.1,0,0.1-0.1,0.1h-3.4v11.2c0,0.1,0,0.1-0.1,0.1h-0.6
				c-0.1,0-0.1,0-0.1-0.1V9.1h-3.4c-0.1,0-0.1,0-0.1-0.1V8.4c0-0.1,0-0.1,0.1-0.1C153.7,8.3,161.3,8.3,161.3,8.3z"/>
		</g>
		<circle cx="129.8" cy="14.6" r="6.3"/>
	</g>
</g>
</svg>
